# xmcd
#
# Track frame offsets:
#	150
#	28449
#	50433
#	79698
#	106039
#	140079
#	164285
#	190012
#	208774
#	226956
#	250131
#	273636
#	290941
#	318443
#
# Disc length: 4728 seconds
# Revision: 0
# Processed by: cddbd v1.5.2PL0 Copyright (c) Steve Scherf et al.
# Submitted via: dBpowerAMP V12.0
#
DISCID=d112760e
DTITLE=Luca Di Fulvio - Das Mädchen, das den Himmel berührte CD7
DYEAR=1900
DGENRE=
TTITLE0=081
TTITLE1=082
TTITLE2=083
TTITLE3=084
TTITLE4=085
TTITLE5=086
TTITLE6=087
TTITLE7=088
TTITLE8=089
TTITLE9=090
TTITLE10=091
TTITLE11=092
TTITLE12=093
TTITLE13=094
EXTD=
EXTT0=
EXTT1=
EXTT2=
EXTT3=
EXTT4=
EXTT5=
EXTT6=
EXTT7=
EXTT8=
EXTT9=
EXTT10=
EXTT11=
EXTT12=
EXTT13=
PLAYORDER=
